<svg width="28" height="28" viewBox="0 0 28 28" fill="none" xmlns="http://www.w3.org/2000/svg">
<path d="M8.46734 22.4C6.91499 22.4 5.64489 23.66 5.64489 25.2C5.64489 26.74 6.91499 28 8.46734 28C10.0197 28 11.2898 26.74 11.2898 25.2C11.2898 23.66 10.0197 22.4 8.46734 22.4ZM0 0V2.8H2.82245L7.90285 13.44L5.92713 16.94C5.64489 17.36 5.50376 17.78 5.50376 18.34C5.50376 19.88 6.77386 21.14 8.3262 21.14H25.2609V18.34H8.89071C8.74958 18.34 8.46734 18.2 8.46734 17.92V17.78L9.73743 15.54H20.1805C21.3095 15.54 22.1562 14.98 22.7207 14.14L27.8011 5.04001C28.2244 4.34001 27.9422 3.50002 27.2366 3.08002C27.0955 2.94002 26.8132 2.94001 26.531 2.94001H5.64489L4.3748 0.140009H0V0ZM22.5796 22.4C21.0272 22.4 19.7571 23.66 19.7571 25.2C19.7571 26.74 21.0272 28 22.5796 28C24.1319 28 25.402 26.74 25.402 25.2C25.402 23.66 24.1319 22.4 22.5796 22.4Z" fill="#242B33"/>
</svg>
