<svg width="480" height="33" viewBox="0 0 480 33" fill="none" xmlns="http://www.w3.org/2000/svg">
<g opacity="0.5">
<path d="M357.7 8.80005C357.7 8.80005 357.5 8.60005 357.2 8.30005C356.9 8.00005 356.5 7.5 355.8 7C354.6 5.9 352.6 4.50005 349.9 3.30005C349.6 3.20005 349.2 3.00005 348.9 2.80005C348.5 2.70005 348.2 2.50002 347.8 2.40002C347.6 2.30002 347.4 2.30001 347.2 2.20001C347 2.10001 346.8 2.1 346.6 2C346.2 1.9 345.8 1.70004 345.4 1.60004C343.7 1.10004 341.9 0.7 339.9 0.5C338 0.2 335.9 0.1 333.8 0C331.7 0 329.5 1.22041e-05 327.2 0.200012C321.1 0.800012 315.5 2.10004 310.9 3.60004C308.6 4.40004 306.5 5.2 304.7 6C302.9 6.8 301.4 7.60001 300.2 8.20001C297.6 9.10001 293.9 10.6 289.4 12.3C287.1 13.1 284.7 14.1 282.1 14.9C279.5 15.8 276.8 16.6 273.9 17.4C269.7 18.5 265.6 19.1 261.8 19.4C258.1 19.8 254.8 19.1 252 18.4C250.6 18.1 249.3 17.7 248.2 17.4C247.1 17.1 246.1 16.8 245.3 16.6C244.5 16.4 243.9 16.2 243.5 16.1C243.1 16 242.9 16 242.9 16C242.9 16 243.1 16.1 243.5 16.2C243.9 16.4 244.5 16.6 245.2 16.9C245.9 17.2 246.9 17.6 247.9 18.1C249 18.6 250.2 19.1 251.6 19.6C253 20.1 254.5 20.6 256.3 21C256.7 21.1 257.2 21.2 257.6 21.2C258.1 21.3 258.5 21.3 259 21.4C259.2 21.4 259.5 21.4 259.7 21.5C259.9 21.5 260.2 21.5 260.4 21.5C260.6 21.5 260.9 21.5 261.1 21.5C261.3 21.5 261.6 21.5 261.8 21.5C265.7 21.4 270 20.9 274.4 19.8C277.4 19 280.2 18.1 282.8 17.1C285.4 16.1 287.8 15 290 14C294.4 11.9 297.9 10.1 300.4 8.80005C301.7 8.30005 303.3 7.80001 305.1 7.20001C306.9 6.60001 309.1 6 311.4 5.5C316 4.4 321.5 3.40005 327.4 2.80005C329.6 2.60005 331.7 2.5 333.7 2.5C335.8 2.5 337.7 2.50001 339.6 2.70001C341.5 2.90001 343.2 3.10002 344.9 3.40002C345.3 3.50002 345.7 3.60001 346.1 3.70001C346.3 3.70001 346.5 3.80005 346.7 3.80005C346.9 3.90005 347.1 3.90002 347.3 3.90002C347.7 4.00002 348 4.10001 348.4 4.20001C348.8 4.30001 349.1 4.4 349.4 4.5C352.1 5.4 354.2 6.50005 355.6 7.30005C356.3 7.70005 356.8 8.10005 357.2 8.30005C357.5 8.70005 357.7 8.80005 357.7 8.80005Z" fill="#98ACB3"/>
<path d="M357 7.20002C357 7.20002 356.8 7.10003 356.4 6.90003C356 6.70003 355.4 6.50005 354.7 6.10005C353.2 5.50005 351 4.70005 348.1 4.10005C345.2 3.50005 341.7 3.20001 337.8 3.50001C335.9 3.70001 333.8 3.90006 331.8 4.30006C329.7 4.70006 327.6 5.30003 325.5 5.90003C322.6 6.80003 319.9 7.90001 317.3 9.00001C314.8 10.1 312.4 11.2 310.2 12.2C305.9 14.3 302.3 16 299.9 17.2C298.6 17.6 297 18.1 295.2 18.7C293.3 19.2 291.3 19.8 288.9 20.4C286.6 21 284.1 21.7001 281.5 22.3001C278.9 22.9001 276.1 23.6 273.2 24C269 24.6 264.9 24.7 261.3 24.1C261.1 24.1 260.9 24 260.6 24C260.4 23.9 260.2 23.9001 259.9 23.8001C259.5 23.7001 259 23.6 258.6 23.5C258.2 23.4 257.8 23.2 257.4 23.1C257 23 256.7 22.8 256.3 22.6C254.9 21.9 253.7 20.9 252.5 20C251.3 19.1 250.3 18.4001 249.2 17.8001C248.2 17.2001 247.2 16.8 246.4 16.6C245.6 16.4 245 16.4 244.5 16.4C244.3 16.4 244.1 16.4 244 16.4C243.9 16.4 243.8 16.4 243.8 16.4C243.8 16.4 243.9 16.4 244 16.4C244.1 16.4 244.3 16.4 244.5 16.4C244.9 16.5 245.5 16.6 246.3 16.9C247 17.2 247.9 17.7001 248.8 18.3001C249.7 19.0001 250.6 19.8001 251.7 20.8001C252.8 21.8001 253.9 22.9 255.4 23.9C255.8 24.1 256.2 24.4 256.6 24.6C257 24.8 257.4 25 257.9 25.2C258.3 25.4 258.8 25.5 259.3 25.7C259.5 25.8 259.8 25.8 260 25.9C260.2 26 260.5 26 260.7 26.1C261.2 26.2 261.7 26.3 262.2 26.4C262.7 26.5 263.2 26.6 263.7 26.6C264.7 26.7 265.8 26.8001 266.9 26.8001C269 26.9001 271.3 26.7 273.5 26.4C276.5 25.9 279.4 25.2 282 24.5C284.7 23.7 287.1 22.9 289.4 22.1C290.5 21.7 291.6 21.3 292.6 20.9C292.9 20.8 293.1 20.7 293.4 20.6C293.6 20.5 293.9 20.4001 294.1 20.3001C294.6 20.1001 295 19.9 295.5 19.7C297.3 18.9 298.8 18.3 300.1 17.7C302.7 16.9 306.5 15.5001 310.9 13.8001C315.4 12.1001 320.5 10 326.2 8.20002C328.3 7.50002 330.3 7.00001 332.3 6.50001C334.3 6.00001 336.2 5.70003 338.1 5.40003C341.8 4.90003 345.2 4.90005 348 5.10005C350.8 5.30005 353.1 5.80002 354.7 6.20002C356.2 7.00002 357 7.20002 357 7.20002Z" fill="#98ACB3"/>
<path d="M357.7 8.80017C357.7 8.80017 357.5 8.70014 357.2 8.40014C357 8.30014 356.8 8.10012 356.5 8.00012C356.2 7.80012 355.9 7.60014 355.6 7.40014C354.9 7.00014 354 6.50015 352.9 6.10015C351.8 5.70016 350.5 5.30015 349 5.10015C347.5 4.90015 345.9 4.80012 344.1 5.00012C342.3 5.20012 340.5 5.50012 338.6 6.00012C336.7 6.50012 334.8 7.20014 332.8 7.90014C331.8 8.30014 330.8 8.60012 329.8 9.00012C328.8 9.40012 327.8 9.80013 326.7 10.2001C325.3 10.8001 323.9 11.3001 322.6 11.9001C321.3 12.5001 319.9 13.0002 318.7 13.6002C316.2 14.8002 313.8 15.9001 311.7 17.0001C310.6 17.5001 309.6 18.0001 308.6 18.5001C307.6 19.0001 306.7 19.5001 305.8 19.9001C304.1 20.8001 302.6 21.6001 301.4 22.2001C298.8 23.2001 295.1 24.5002 290.6 26.3002C288.4 27.2002 286 28.0002 283.3 28.6002C280.7 29.2002 277.9 29.7002 275 29.8002C272.9 29.9002 270.8 29.8001 268.8 29.4001L268.4 29.3002C268.3 29.3002 268.2 29.2001 268 29.2001C267.8 29.1001 267.5 29.1001 267.3 29.0001C267.1 28.9001 266.8 28.9002 266.6 28.8002C266.4 28.7002 266.1 28.7002 265.9 28.6002C265.4 28.5002 265 28.3001 264.5 28.2001C264.1 28.0001 263.6 27.9001 263.2 27.7001L262.9 27.6002L262.6 27.5001C262.4 27.4001 262.2 27.3001 262 27.2001C261.6 27.0001 261.2 26.8002 260.8 26.6002C260.1 26.2002 259.4 25.7001 258.8 25.2001C257.5 24.1001 256.4 23.0002 255.3 22.1002C254.2 21.1002 253.1 20.3001 252.1 19.7001C251.6 19.4001 251.1 19.1001 250.6 18.9001C250.1 18.7001 249.7 18.6001 249.3 18.5001C248.5 18.3001 247.8 18.4001 247.4 18.5001C247.2 18.5001 247 18.6002 246.9 18.6002C246.8 18.6002 246.7 18.6002 246.7 18.6002C246.7 18.6002 246.8 18.6002 246.9 18.6002C247 18.6002 247.2 18.6002 247.4 18.6002C247.8 18.6002 248.5 18.6001 249.2 18.9001C249.6 19.0001 250 19.2001 250.4 19.5001C250.8 19.7001 251.2 20.0001 251.7 20.4001C252.6 21.1001 253.5 22.0002 254.5 23.1002C255.5 24.1002 256.5 25.3002 257.8 26.6002C258.4 27.2002 259.1 27.8001 259.9 28.4001C260.3 28.7001 260.7 28.9002 261.2 29.1002C261.4 29.2002 261.6 29.3001 261.8 29.5001L262.1 29.7001L262.4 29.9001C262.9 30.1001 263.3 30.3001 263.8 30.5001C264.3 30.7001 264.8 30.8001 265.3 31.0001C265.5 31.1001 265.8 31.2002 266 31.3002C266.3 31.4002 266.5 31.4001 266.8 31.5001C267.1 31.6001 267.3 31.6001 267.6 31.7001C267.7 31.7001 267.9 31.8002 268 31.8002L268.4 31.9001C270.5 32.4001 272.8 32.5001 275.1 32.4001C278.2 32.3001 281.2 31.7001 283.9 30.9001C286.6 30.1001 289.1 29.1001 291.3 28.0001C295.6 25.9001 299.2 24.0001 301.6 22.7001C302.9 22.2001 304.5 21.6001 306.3 20.9001C308.1 20.2001 310.2 19.4001 312.4 18.5001C314.6 17.6001 317.1 16.7002 319.6 15.6002C320.9 15.1002 322.2 14.6001 323.5 14.0001C324.8 13.5001 326.2 12.9001 327.6 12.4001C328.6 12.0001 329.6 11.6001 330.6 11.2001C331.6 10.8001 332.6 10.4001 333.6 10.0001C335.5 9.20012 337.4 8.50014 339.2 7.90014C341 7.30014 342.7 6.80012 344.3 6.50012C345.9 6.20012 347.5 6.10015 348.9 6.10015C351.7 6.20016 354 6.90012 355.5 7.50012C355.9 7.60012 356.2 7.80014 356.5 7.90014C356.8 8.00014 357 8.10013 357.2 8.20013C357.5 8.70013 357.7 8.80017 357.7 8.80017Z" fill="#98ACB3"/>
<path d="M352.7 6.70001C352.7 6.70001 353 6.80002 353.4 6.90002C353.6 7.00002 353.9 7.10001 354.2 7.20001C354.5 7.30001 354.8 7.50001 355.2 7.70001C355.9 8.10001 356.5 8.7 356.8 9.5C356.9 9.7 357 9.90004 357 10.1C357 10.2 357.1 10.3 357.1 10.4C357.1 10.5 357.1 10.6 357.2 10.8C357.3 11.3 357.3 11.8 357.2 12.3C357.1 13.8 356.6 15.2 355.9 16.3C355.6 16.9 355.2 17.3 354.9 17.7C354.5 18.1 354.2 18.4 353.9 18.7C353.1 18.9 352 19 350.8 18.8C350.1 18.7 349.4 18.6 348.8 18.3C348.5 18.2 348.2 18.1 347.9 17.9C347.7 17.8 347.6 17.7 347.5 17.7C347.4 17.7 347.4 17.6 347.3 17.6L347.2 17.5L347.1 17.4C346.8 17.1 346.7 16.8 346.6 16.5C346.5 16.1 346.5 15.7 346.6 15.3C346.8 14.5 347.3 13.7 347.8 13.3C348.1 13.1 348.3 13 348.6 12.9H348.7H348.8C348.9 12.9 348.9 12.9 349 12.9C349.1 12.9 349.2 12.9 349.3 13C349.4 13 349.5 13.1 349.6 13.1C349.7 13.1 349.7 13.2 349.8 13.2C349.9 13.3 350 13.3 350 13.3C350 13.3 350 13.2 349.9 13.1C349.9 13 349.8 13 349.8 12.9C349.7 12.8 349.7 12.7 349.6 12.6C349.5 12.5 349.4 12.4 349.3 12.3C349.2 12.3 349.1 12.2 349.1 12.2C349.1 12.2 349 12.2 349 12.1H348.9C348.5 12 348 11.9 347.5 12.1C346.5 12.4 345.4 13.2 344.8 14.5C344.5 15.1 344.3 15.9 344.3 16.8C344.3 17.2 344.4 17.7 344.7 18.1L344.9 18.4L345.1 18.7C345.2 18.9 345.4 19.1 345.6 19.2L345.8 19.4L346 19.5C346.1 19.6 346.2 19.7 346.4 19.8C346.6 19.9 346.9 20.1 347.1 20.2C347.6 20.4 348.1 20.5 348.5 20.6C348.7 20.6 349 20.7 349.2 20.7C349.4 20.7 349.6 20.7 349.8 20.7C350 20.7 350.2 20.7 350.4 20.7C350.6 20.7 350.8 20.7 351 20.7C351.2 20.7 351.4 20.6 351.6 20.6C351.7 20.6 351.8 20.6 351.9 20.6C352 20.6 352.1 20.6 352.2 20.5C352.4 20.4 352.5 20.4 352.7 20.4C352.9 20.3 353 20.3 353.2 20.2C353.8 20 354.2 19.6 354.6 19.4C355 19.3 355.5 19.1 356.1 18.8C356.6 18.5 357.3 18.1 357.8 17.5C358.9 16.4 360 14.7 360.1 12.6C360.2 11.8 360.1 11.1 359.9 10.3C359.8 10.1 359.8 9.90005 359.7 9.80005C359.6 9.60005 359.6 9.50005 359.5 9.30005C359.3 9.00005 359.2 8.70002 358.9 8.40002C358.7 8.10002 358.4 7.90001 358.2 7.70001C358.1 7.60001 357.9 7.50002 357.8 7.40002C357.7 7.30002 357.5 7.20001 357.4 7.20001C357.1 7.10001 356.9 6.90005 356.6 6.80005C356.5 6.80005 356.3 6.70001 356.2 6.70001C356.1 6.70001 356 6.60004 355.8 6.60004C355.3 6.50004 354.9 6.5 354.5 6.5C354.1 6.5 353.8 6.50004 353.6 6.60004C352.9 6.70004 352.7 6.70001 352.7 6.70001Z" fill="#98ACB3"/>
<path d="M253.3 10.4002C253.3 10.4002 253.2 10.4002 253 10.3002C252.8 10.2002 252.5 10.1002 252 10.0002C251.8 10.0002 251.5 9.90022 251.2 9.90022C250.9 9.90022 250.6 9.90024 250.2 10.1002C249.8 10.3002 249.5 10.6002 249.3 11.0002C249.1 11.4002 249.1 11.9002 249.2 12.4002C249.3 13.3002 249.8 14.2002 250.4 15.0002C250.7 15.4002 251.1 15.8002 251.6 16.1002C252.1 16.4002 252.7 16.7002 253.4 16.8002C253.8 16.8002 254.1 16.8002 254.5 16.7002C254.9 16.6002 255.2 16.5002 255.6 16.3002C255.9 16.1002 256.2 15.9002 256.4 15.6002C256.6 15.3002 256.9 15.1002 257 14.8002C257.2 14.5002 257.3 14.2002 257.5 13.9002C257.6 13.6002 257.8 13.3002 257.9 13.0002C258 12.8002 258 12.7002 258.1 12.5002C258.1 12.3002 258.2 12.2002 258.2 12.0002L258.3 11.7002V11.4002C258.3 11.2002 258.3 11.0002 258.3 10.9002C258.3 9.90022 258.1 8.9002 257.6 8.0002C257.1 7.2002 256.5 6.5002 255.8 6.0002C254.4 5.0002 252.9 4.60022 251.5 4.40022C250.1 4.20022 248.9 4.40024 247.8 4.60024C246.7 4.90024 245.9 5.30021 245.2 5.70021C244.8 5.80021 244.4 6.00025 244 6.30025C243.9 6.40025 243.8 6.4002 243.7 6.5002C243.6 6.6002 243.5 6.70021 243.4 6.70021C243.2 6.90021 243 7.10025 242.8 7.30025C242.4 7.70025 242 8.20021 241.7 8.70021C241.4 9.30021 241.1 9.90021 240.9 10.7002C240.7 11.4002 240.8 12.3002 241 13.1002C241.2 13.9002 241.6 14.7002 242 15.3002C242.9 16.7002 244.2 17.8002 245.5 18.8002C247.4 20.3002 249.4 21.4002 251.1 22.4002C252.9 23.4002 254.4 24.3002 255.7 25.1002C257 25.9002 257.9 26.6002 258.6 27.2002C258.9 27.5002 259.1 27.7002 259.3 27.9002C259.4 28.1002 259.5 28.2002 259.5 28.2002C259.5 28.2002 259.5 28.1002 259.4 27.9002C259.3 27.7002 259.2 27.4002 258.9 27.0002C258.5 26.2002 257.7 25.2002 256.5 24.1002C255.4 23.0002 253.9 21.8002 252.3 20.6002C250.7 19.4002 248.8 18.2002 247 16.8002C245.8 15.9002 244.7 14.9002 243.9 13.9002C243.1 12.9002 242.7 11.9002 242.7 10.9002C242.7 9.90022 243.2 8.90024 243.7 8.10024C243.8 7.90024 244 7.7002 244.1 7.5002C244.2 7.4002 244.2 7.30021 244.3 7.20021C244.4 7.10021 244.4 7.0002 244.5 7.0002C244.8 6.7002 245.1 6.50025 245.4 6.30025C246.1 6.10025 246.9 5.90025 247.9 5.80025C248.9 5.80025 250 5.90021 251.1 6.20021C251.7 6.40021 252.2 6.60025 252.8 6.80025C253.3 7.10025 253.9 7.40025 254.3 7.80025C254.8 8.20025 255.1 8.60023 255.4 9.10023C255.7 9.60023 255.8 10.1002 255.8 10.7002C255.8 10.8002 255.8 10.9002 255.8 11.0002V11.2002V11.4002L255.7 11.7002L255.6 12.0002C255.5 12.2002 255.5 12.5002 255.4 12.7002C255.3 12.9002 255.2 13.1002 255.1 13.3002C254.9 13.7002 254.6 14.0002 254.4 14.2002C254.2 14.4002 253.9 14.5002 253.6 14.5002C253 14.5002 252.2 14.1002 251.7 13.6002C251.1 13.1002 250.7 12.5002 250.4 11.9002C250.3 11.6002 250.2 11.3002 250.3 11.1002C250.3 10.9002 250.4 10.7002 250.6 10.6002C250.8 10.5002 251 10.4002 251.2 10.3002C251.4 10.2002 251.7 10.2002 251.9 10.2002C252.3 10.2002 252.7 10.2002 252.9 10.2002C253.2 10.4002 253.3 10.4002 253.3 10.4002Z" fill="#98ACB3"/>
<path d="M467.8 9.70028L468.8 14.1003C468.8 14.2003 468.8 14.2003 468.8 14.3003L467.8 18.5003C467.7 18.8003 468.1 19.1003 468.3 18.9003L471.4 17.1003C472.5 16.5003 473.6 16.0003 474.8 15.7003L479.4 14.6003C479.8 14.5003 479.8 14.0003 479.4 13.9003L474 12.2003C473.3 12.0003 472.6 11.7003 472 11.3003L468.2 9.20028C468.1 9.10028 467.8 9.40028 467.8 9.70028Z" fill="#98ACB3"/>
<path d="M372.4 13.2004C371.3 12.2004 369.2 10.9004 367.9 10.9004C366.2 10.9004 364.8 12.3004 364.8 14.0004C364.8 15.7004 366.2 17.1004 367.9 17.1004C369.2 17.1004 371.6 15.9004 372.6 14.8004H461V13.9004V13.0004H372.4V13.2004Z" fill="#98ACB3"/>
<path d="M463.2 11.8003C462 11.8003 460.9 12.8003 460.9 14.1003C460.9 15.3003 461.9 16.4003 463.2 16.4003C464.5 16.4003 465.5 15.4003 465.5 14.1003C465.5 12.8003 464.5 11.8003 463.2 11.8003Z" fill="#98ACB3"/>
<path d="M122 8.80005C122 8.80005 122.2 8.60005 122.5 8.30005C122.8 8.00005 123.2 7.5 123.9 7C125.1 5.9 127.1 4.50005 129.8 3.30005C130.1 3.20005 130.5 3.00005 130.8 2.80005C131.2 2.70005 131.5 2.50002 131.9 2.40002C132.1 2.30002 132.3 2.30001 132.5 2.20001C132.7 2.10001 132.9 2.1 133.1 2C133.5 1.9 133.9 1.70004 134.3 1.60004C136 1.10004 137.8 0.7 139.8 0.5C141.7 0.2 143.8 0.1 145.9 0C148 0 150.2 1.22041e-05 152.5 0.200012C158.6 0.800012 164.2 2.10004 168.8 3.60004C171.1 4.40004 173.2 5.2 175 6C176.8 6.8 178.3 7.60001 179.5 8.20001C182.1 9.10001 185.8 10.6 190.3 12.3C192.6 13.1 195 14.1 197.6 14.9C200.2 15.8 202.9 16.6 205.8 17.4C210 18.5 214.1 19.1 217.9 19.4C221.6 19.8 224.9 19.1 227.7 18.4C229.1 18.1 230.4 17.7 231.5 17.4C232.6 17.1 233.6 16.8 234.4 16.6C235.2 16.4 235.8 16.2 236.2 16.1C236.6 16 236.8 16 236.8 16C236.8 16 236.6 16.1 236.2 16.2C235.8 16.4 235.2 16.6 234.5 16.9C233.8 17.2 232.8 17.6 231.8 18.1C230.7 18.6 229.5 19.1 228.1 19.6C226.7 20.1 225.2 20.6 223.4 21C223 21.1 222.5 21.2 222.1 21.2C221.6 21.3 221.2 21.3 220.7 21.4C220.5 21.4 220.2 21.4 220 21.5C219.8 21.5 219.5 21.5 219.3 21.5C219.1 21.5 218.8 21.5 218.6 21.5C218.4 21.5 218.1 21.5 217.9 21.5C214 21.4 209.7 20.9 205.3 19.8C202.3 19 199.5 18.1 196.9 17.1C194.3 16.1 191.9 15 189.7 14C185.3 11.9 181.8 10.1 179.3 8.80005C178 8.30005 176.4 7.80001 174.6 7.20001C172.8 6.60001 170.6 6 168.3 5.5C163.7 4.4 158.2 3.40005 152.3 2.80005C150.1 2.60005 148 2.5 146 2.5C143.9 2.5 142 2.50001 140.1 2.70001C138.2 2.90001 136.5 3.10002 134.8 3.40002C134.4 3.50002 134 3.60001 133.6 3.70001C133.4 3.70001 133.2 3.80005 133 3.80005C132.8 3.90005 132.6 3.90002 132.4 3.90002C132 4.00002 131.7 4.10001 131.3 4.20001C130.9 4.30001 130.6 4.4 130.3 4.5C127.6 5.4 125.5 6.50005 124.1 7.30005C123.4 7.70005 122.9 8.10005 122.5 8.30005C122.2 8.70005 122 8.80005 122 8.80005Z" fill="#98ACB3"/>
<path d="M122.7 7.20002C122.7 7.20002 122.9 7.10003 123.3 6.90003C123.7 6.70003 124.3 6.50005 125 6.10005C126.5 5.50005 128.7 4.70005 131.6 4.10005C134.5 3.50005 138 3.20001 141.9 3.50001C143.8 3.70001 145.9 3.90006 147.9 4.30006C150 4.70006 152.1 5.30003 154.2 5.90003C157.1 6.80003 159.8 7.90001 162.4 9.00001C164.9 10.1 167.3 11.2 169.5 12.2C173.8 14.3 177.4 16 179.8 17.2C181.1 17.6 182.7 18.1 184.5 18.7C186.4 19.2 188.4 19.8 190.8 20.4C193.1 21 195.6 21.7001 198.2 22.3001C200.8 22.9001 203.6 23.6 206.5 24C210.7 24.6 214.8 24.7 218.4 24.1C218.6 24.1 218.8 24 219.1 24C219.3 23.9 219.5 23.9001 219.8 23.8001C220.2 23.7001 220.7 23.6 221.1 23.5C221.5 23.4 221.9 23.2 222.3 23.1C222.7 23 223 22.8 223.4 22.6C224.8 21.9 226 20.9 227.2 20C228.4 19.1 229.4 18.4001 230.5 17.8001C231.5 17.2001 232.5 16.8 233.3 16.6C234.1 16.4 234.7 16.4 235.2 16.4C235.4 16.4 235.6 16.4 235.7 16.4C235.8 16.4 235.9 16.4 235.9 16.4C235.9 16.4 235.8 16.4 235.7 16.4C235.6 16.4 235.4 16.4 235.2 16.4C234.8 16.5 234.2 16.6 233.4 16.9C232.7 17.2 231.8 17.7001 230.9 18.3001C230 19.0001 229.1 19.8001 228 20.8001C226.9 21.8001 225.8 22.9 224.3 23.9C223.9 24.1 223.5 24.4 223.1 24.6C222.7 24.8 222.3 25 221.8 25.2C221.4 25.4 220.9 25.5 220.4 25.7C220.2 25.8 219.9 25.8 219.7 25.9C219.5 26 219.2 26 219 26.1C218.5 26.2 218 26.3 217.5 26.4C217 26.5 216.5 26.6 216 26.6C215 26.7 213.9 26.8001 212.8 26.8001C210.7 26.9001 208.4 26.7 206.2 26.4C203.2 25.9 200.3 25.2 197.7 24.5C195 23.7 192.6 22.9 190.3 22.1C189.2 21.7 188.1 21.3 187.1 20.9C186.8 20.8 186.6 20.7 186.3 20.6C186.1 20.5 185.8 20.4001 185.6 20.3001C185.1 20.1001 184.7 19.9 184.2 19.7C182.4 18.9 180.9 18.3 179.6 17.7C177 16.9 173.2 15.5001 168.8 13.8001C164.3 12.1001 159.2 10 153.5 8.20002C151.4 7.50002 149.4 7.00001 147.4 6.50001C145.4 6.00001 143.5 5.70003 141.6 5.40003C137.9 4.90003 134.5 4.90005 131.7 5.10005C128.9 5.30005 126.6 5.80002 125 6.20002C123.6 7.00002 122.7 7.20002 122.7 7.20002Z" fill="#98ACB3"/>
<path d="M122 8.80017C122 8.80017 122.2 8.70014 122.5 8.40014C122.7 8.30014 122.9 8.10012 123.2 8.00012C123.5 7.80012 123.8 7.60014 124.1 7.40014C124.8 7.00014 125.7 6.50015 126.8 6.10015C127.9 5.70016 129.2 5.30015 130.7 5.10015C132.2 4.90015 133.8 4.80012 135.6 5.00012C137.4 5.20012 139.2 5.50012 141.1 6.00012C143 6.50012 144.9 7.20014 146.9 7.90014C147.9 8.30014 148.9 8.60012 149.9 9.00012C150.9 9.40012 151.9 9.80013 153 10.2001C154.4 10.8001 155.8 11.3001 157.1 11.9001C158.4 12.5001 159.8 13.0002 161 13.6002C163.5 14.8002 165.9 15.9001 168 17.0001C169.1 17.5001 170.1 18.0001 171.1 18.5001C172.1 19.0001 173 19.5001 173.9 19.9001C175.6 20.8001 177.1 21.6001 178.3 22.2001C180.9 23.2001 184.6 24.5002 189.1 26.3002C191.3 27.2002 193.7 28.0002 196.4 28.6002C199 29.2002 201.8 29.7002 204.7 29.8002C206.8 29.9002 208.9 29.8001 210.9 29.4001L211.3 29.3002C211.4 29.3002 211.5 29.2001 211.7 29.2001C211.9 29.1001 212.2 29.1001 212.4 29.0001C212.6 28.9001 212.9 28.9002 213.1 28.8002C213.3 28.7002 213.6 28.7002 213.8 28.6002C214.3 28.5002 214.7 28.3001 215.2 28.2001C215.6 28.0001 216.1 27.9001 216.5 27.7001L216.8 27.6002L217.1 27.5001C217.3 27.4001 217.5 27.3001 217.7 27.2001C218.1 27.0001 218.5 26.8002 218.9 26.6002C219.6 26.2002 220.3 25.7001 220.9 25.2001C222.2 24.1001 223.3 23.0002 224.4 22.1002C225.5 21.1002 226.6 20.3001 227.6 19.7001C228.1 19.4001 228.6 19.1001 229.1 18.9001C229.6 18.7001 230 18.6001 230.4 18.5001C231.2 18.3001 231.9 18.4001 232.3 18.5001C232.5 18.5001 232.7 18.6002 232.8 18.6002C232.9 18.6002 233 18.6002 233 18.6002C233 18.6002 232.9 18.6002 232.8 18.6002C232.7 18.6002 232.5 18.6002 232.3 18.6002C231.9 18.6002 231.2 18.6001 230.5 18.9001C230.1 19.0001 229.7 19.2001 229.3 19.5001C228.9 19.7001 228.5 20.0001 228 20.4001C227.1 21.1001 226.2 22.0002 225.2 23.1002C224.2 24.1002 223.2 25.3002 221.9 26.6002C221.3 27.2002 220.6 27.8001 219.8 28.4001C219.4 28.7001 219 28.9002 218.5 29.1002C218.3 29.2002 218.1 29.3001 217.9 29.5001L217.6 29.7001L217.3 29.9001C216.8 30.1001 216.4 30.3001 215.9 30.5001C215.4 30.7001 214.9 30.8001 214.4 31.0001C214.2 31.1001 213.9 31.2002 213.7 31.3002C213.4 31.4002 213.2 31.4001 212.9 31.5001C212.6 31.6001 212.4 31.6001 212.1 31.7001C212 31.7001 211.8 31.8002 211.7 31.8002L211.3 31.9001C209.2 32.4001 206.9 32.5001 204.6 32.4001C201.5 32.3001 198.5 31.7001 195.8 30.9001C193.1 30.1001 190.6 29.1001 188.4 28.0001C184.1 25.9001 180.5 24.0001 178.1 22.7001C176.8 22.2001 175.2 21.6001 173.4 20.9001C171.6 20.2001 169.5 19.4001 167.3 18.5001C165.1 17.6001 162.6 16.7002 160.1 15.6002C158.8 15.1002 157.5 14.6001 156.2 14.0001C154.9 13.5001 153.5 12.9001 152.1 12.4001C151.1 12.0001 150.1 11.6001 149.1 11.2001C148.1 10.8001 147.1 10.4001 146.1 10.0001C144.2 9.20012 142.3 8.50014 140.5 7.90014C138.7 7.30014 137 6.80012 135.4 6.50012C133.8 6.20012 132.2 6.10015 130.8 6.10015C128 6.20016 125.7 6.90012 124.2 7.50012C123.8 7.60012 123.5 7.80014 123.2 7.90014C122.9 8.00014 122.7 8.10013 122.5 8.20013C122.2 8.70013 122 8.80017 122 8.80017Z" fill="#98ACB3"/>
<path d="M127.1 6.70001C127.1 6.70001 126.8 6.80002 126.4 6.90002C126.2 7.00002 125.9 7.10001 125.6 7.20001C125.3 7.30001 125 7.50001 124.6 7.70001C123.9 8.10001 123.3 8.7 123 9.5C122.9 9.7 122.8 9.90004 122.8 10.1C122.8 10.2 122.7 10.3 122.7 10.4C122.7 10.5 122.7 10.6 122.6 10.8C122.5 11.3 122.5 11.8 122.6 12.3C122.7 13.8 123.2 15.2 123.9 16.3C124.2 16.9 124.6 17.3 124.9 17.7C125.3 18.1 125.6 18.4 125.9 18.7C126.7 18.9 127.8 19 129 18.8C129.7 18.7 130.4 18.6 131 18.3C131.3 18.2 131.6 18.1 131.9 17.9C132.1 17.8 132.2 17.7 132.3 17.7C132.4 17.7 132.4 17.6 132.5 17.6L132.6 17.5L132.7 17.4C133 17.1 133.1 16.8 133.2 16.5C133.3 16.1 133.3 15.7 133.2 15.3C133 14.5 132.5 13.7 132 13.3C131.7 13.1 131.5 13 131.2 12.9H131.1H131C130.9 12.9 130.9 12.9 130.8 12.9C130.7 12.9 130.6 12.9 130.5 13C130.4 13 130.3 13.1 130.2 13.1C130.1 13.1 130.1 13.2 130 13.2C129.9 13.3 129.8 13.3 129.8 13.3C129.8 13.3 129.8 13.2 129.9 13.1C129.9 13 130 13 130 12.9C130.1 12.8 130.1 12.7 130.2 12.6C130.3 12.5 130.4 12.4 130.5 12.3C130.6 12.3 130.7 12.2 130.7 12.2C130.7 12.2 130.8 12.2 130.8 12.1H130.9C131.3 12 131.8 11.9 132.3 12.1C133.3 12.4 134.4 13.2 135 14.5C135.3 15.1 135.5 15.9 135.5 16.8C135.5 17.2 135.4 17.7 135.1 18.1L134.9 18.4L134.7 18.7C134.6 18.9 134.4 19.1 134.2 19.2L134 19.4L133.8 19.5C133.7 19.6 133.6 19.7 133.4 19.8C133.2 19.9 132.9 20.1 132.7 20.2C132.2 20.4 131.7 20.5 131.3 20.6C131.1 20.6 130.8 20.7 130.6 20.7C130.4 20.7 130.2 20.7 130 20.7C129.8 20.7 129.6 20.7 129.4 20.7C129.2 20.7 129 20.7 128.8 20.7C128.6 20.7 128.4 20.6 128.2 20.6C128.1 20.6 128 20.6 127.9 20.6C127.8 20.6 127.7 20.6 127.6 20.5C127.4 20.4 127.3 20.4 127.1 20.4C126.9 20.3 126.8 20.3 126.6 20.2C126 20 125.6 19.6 125.2 19.4C124.8 19.3 124.3 19.1 123.7 18.8C123.2 18.5 122.5 18.1 122 17.5C120.9 16.4 119.8 14.7 119.7 12.6C119.6 11.8 119.7 11.1 119.9 10.3C120 10.1 120 9.90005 120.1 9.80005C120.2 9.60005 120.2 9.50005 120.3 9.30005C120.5 9.00005 120.6 8.70002 120.9 8.40002C121.1 8.10002 121.4 7.90001 121.6 7.70001C121.7 7.60001 121.9 7.50002 122 7.40002C122.1 7.30002 122.3 7.20001 122.4 7.20001C122.7 7.10001 122.9 6.90005 123.2 6.80005C123.3 6.80005 123.5 6.70001 123.6 6.70001C123.7 6.70001 123.8 6.60004 124 6.60004C124.5 6.50004 124.9 6.5 125.3 6.5C125.7 6.5 126 6.50004 126.2 6.60004C126.8 6.70004 127.1 6.70001 127.1 6.70001Z" fill="#98ACB3"/>
<path d="M226.4 10.4002C226.4 10.4002 226.5 10.4002 226.7 10.3002C226.9 10.2002 227.2 10.1002 227.7 10.0002C227.9 10.0002 228.2 9.90022 228.5 9.90022C228.8 9.90022 229.1 9.90024 229.5 10.1002C229.9 10.3002 230.2 10.6002 230.4 11.0002C230.6 11.4002 230.6 11.9002 230.5 12.4002C230.4 13.3002 229.9 14.2002 229.3 15.0002C229 15.4002 228.6 15.8002 228.1 16.1002C227.6 16.4002 227 16.7002 226.3 16.8002C225.9 16.8002 225.6 16.8002 225.2 16.7002C224.8 16.6002 224.5 16.5002 224.1 16.3002C223.8 16.1002 223.5 15.9002 223.3 15.6002C223.1 15.3002 222.8 15.1002 222.7 14.8002C222.5 14.5002 222.4 14.2002 222.2 13.9002C222.1 13.6002 221.9 13.3002 221.8 13.0002C221.7 12.8002 221.7 12.7002 221.6 12.5002C221.6 12.3002 221.5 12.2002 221.5 12.0002L221.4 11.7002V11.4002C221.4 11.2002 221.4 11.0002 221.4 10.9002C221.4 9.90022 221.6 8.9002 222.1 8.0002C222.6 7.2002 223.2 6.5002 223.9 6.0002C225.3 5.0002 226.8 4.60022 228.2 4.40022C229.6 4.20022 230.8 4.40024 231.9 4.60024C233 4.90024 233.8 5.30021 234.5 5.70021C234.9 5.80021 235.3 6.00025 235.7 6.30025C235.8 6.40025 235.9 6.4002 236 6.5002C236.1 6.6002 236.2 6.70021 236.3 6.70021C236.5 6.90021 236.7 7.10025 236.9 7.30025C237.3 7.70025 237.7 8.20021 238 8.70021C238.3 9.30021 238.6 9.90021 238.8 10.7002C239 11.4002 238.9 12.3002 238.7 13.1002C238.5 13.9002 238.1 14.7002 237.7 15.3002C236.8 16.7002 235.5 17.8002 234.2 18.8002C232.3 20.3002 230.3 21.4002 228.6 22.4002C226.8 23.4002 225.3 24.3002 224 25.1002C222.7 25.9002 221.8 26.6002 221.1 27.2002C220.8 27.5002 220.6 27.7002 220.4 27.9002C220.3 28.1002 220.2 28.2002 220.2 28.2002C220.2 28.2002 220.2 28.1002 220.3 27.9002C220.4 27.7002 220.5 27.4002 220.8 27.0002C221.2 26.2002 222 25.2002 223.2 24.1002C224.3 23.0002 225.8 21.8002 227.4 20.6002C229 19.4002 230.9 18.2002 232.7 16.8002C233.9 15.9002 235 14.9002 235.8 13.9002C236.6 12.9002 237 11.9002 237 10.9002C237 9.90022 236.5 8.90024 236 8.10024C235.9 7.90024 235.7 7.7002 235.6 7.5002C235.5 7.4002 235.5 7.30021 235.4 7.20021C235.3 7.10021 235.3 7.0002 235.2 7.0002C234.9 6.7002 234.6 6.50025 234.3 6.30025C233.6 6.10025 232.8 5.90025 231.8 5.80025C230.8 5.80025 229.7 5.90021 228.6 6.20021C228 6.40021 227.5 6.60025 226.9 6.80025C226.4 7.10025 225.8 7.40025 225.4 7.80025C224.9 8.20025 224.6 8.60023 224.3 9.10023C224 9.60023 223.9 10.1002 223.9 10.7002C223.9 10.8002 223.9 10.9002 223.9 11.0002V11.2002V11.4002L224 11.7002L224.1 12.0002C224.2 12.2002 224.2 12.5002 224.3 12.7002C224.4 12.9002 224.5 13.1002 224.6 13.3002C224.8 13.7002 225.1 14.0002 225.3 14.2002C225.5 14.4002 225.8 14.5002 226.1 14.5002C226.7 14.5002 227.5 14.1002 228 13.6002C228.6 13.1002 229 12.5002 229.3 11.9002C229.4 11.6002 229.5 11.3002 229.4 11.1002C229.4 10.9002 229.3 10.7002 229.1 10.6002C228.9 10.5002 228.7 10.4002 228.5 10.3002C228.3 10.2002 228 10.2002 227.8 10.2002C227.4 10.2002 227 10.2002 226.8 10.2002C226.5 10.4002 226.4 10.4002 226.4 10.4002Z" fill="#98ACB3"/>
<path d="M11.9 9.70028L10.9 14.1003C10.9 14.2003 10.9 14.2003 10.9 14.3003L11.9 18.5003C12 18.8003 11.6 19.1003 11.4 18.9003L8.3 17.1003C7.2 16.5003 6.1 16.0003 4.9 15.7003L0.3 14.6003C-0.1 14.5003 -0.1 14.0003 0.3 13.9003L5.7 12.2003C6.4 12.0003 7.1 11.7003 7.7 11.3003L11.5 9.20028C11.6 9.10028 12 9.40028 11.9 9.70028Z" fill="#98ACB3"/>
<path d="M107.3 13.2004C108.4 12.2004 110.5 10.9004 111.8 10.9004C113.5 10.9004 114.9 12.3004 114.9 14.0004C114.9 15.7004 113.5 17.1004 111.8 17.1004C110.5 17.1004 108.1 15.9004 107.1 14.8004H18.8V13.9004V13.0004H107.3V13.2004Z" fill="#98ACB3"/>
<path d="M16.5 11.8003C17.7 11.8003 18.8 12.8003 18.8 14.1003C18.8 15.3003 17.8 16.4003 16.5 16.4003C15.2 16.4003 14.2 15.4003 14.2 14.1003C14.2 12.8003 15.2 11.8003 16.5 11.8003Z" fill="#98ACB3"/>
</g>
</svg>
