<svg width="41" height="41" viewBox="0 0 41 41" fill="none" xmlns="http://www.w3.org/2000/svg">
<circle cx="20.5" cy="20.5" r="20.5" fill="url(#paint0_linear)"/>
<path d="M22.7219 22.6191C23.271 22.07 23.5455 21.4074 23.5455 20.6313C23.5455 19.8553 23.271 19.1927 22.7219 18.6436C22.1728 18.0945 21.5102 17.8199 20.7341 17.8199C19.958 17.8199 19.2954 18.0945 18.7463 18.6436C18.1972 19.1927 17.9227 19.8553 17.9227 20.6313C17.9227 21.4074 18.1972 22.07 18.7463 22.6191C19.2954 23.1682 19.958 23.4428 20.7341 23.4428C21.5102 23.4428 22.1728 23.1682 22.7219 22.6191ZM23.7981 17.5673C24.6401 18.4093 25.0611 19.4306 25.0611 20.6313C25.0611 21.8321 24.6401 22.8534 23.7981 23.6954C22.9561 24.5373 21.9348 24.9583 20.7341 24.9583C19.5334 24.9583 18.512 24.5373 17.6701 23.6954C16.8281 22.8534 16.4071 21.8321 16.4071 20.6313C16.4071 19.4306 16.8281 18.4093 17.6701 17.5673C18.512 16.7254 19.5334 16.3044 20.7341 16.3044C21.9348 16.3044 22.9561 16.7254 23.7981 17.5673ZM25.9506 15.4148C26.1483 15.6125 26.2471 15.8504 26.2471 16.1287C26.2471 16.4069 26.1483 16.6448 25.9506 16.8425C25.7529 17.0402 25.515 17.139 25.2368 17.139C24.9586 17.139 24.7206 17.0402 24.5229 16.8425C24.3253 16.6448 24.2264 16.4069 24.2264 16.1287C24.2264 15.8504 24.3253 15.6125 24.5229 15.4148C24.7206 15.2171 24.9586 15.1183 25.2368 15.1183C25.515 15.1183 25.7529 15.2171 25.9506 15.4148ZM21.5687 13.7126C21.0636 13.7126 20.7853 13.7126 20.7341 13.7126C20.6828 13.7126 20.401 13.7126 19.8885 13.7126C19.3833 13.7053 18.9989 13.7053 18.7353 13.7126C18.4718 13.7126 18.1167 13.7236 17.6701 13.7455C17.2308 13.7602 16.8537 13.7968 16.5389 13.8554C16.2314 13.9066 15.9715 13.9725 15.7592 14.053C15.3931 14.1995 15.071 14.4118 14.7928 14.69C14.5145 14.9682 14.3022 15.2904 14.1558 15.6564C14.0753 15.8688 14.0057 16.1323 13.9471 16.4471C13.8959 16.7546 13.8593 17.1317 13.8373 17.5783C13.8227 18.0176 13.8117 18.369 13.8044 18.6326C13.8044 18.8962 13.8044 19.2842 13.8044 19.7967C13.8117 20.3019 13.8153 20.5801 13.8153 20.6313C13.8153 20.6826 13.8117 20.9645 13.8044 21.477C13.8044 21.9821 13.8044 22.3665 13.8044 22.6301C13.8117 22.8937 13.8227 23.2488 13.8373 23.6954C13.8593 24.1346 13.8959 24.5117 13.9471 24.8265C14.0057 25.134 14.0753 25.3939 14.1558 25.6063C14.3022 25.9723 14.5145 26.2945 14.7928 26.5727C15.071 26.8509 15.3931 27.0632 15.7592 27.2096C15.9715 27.2902 16.2314 27.3597 16.5389 27.4183C16.8537 27.4696 17.2308 27.5062 17.6701 27.5281C18.1167 27.5428 18.4718 27.5538 18.7353 27.5611C18.9989 27.5611 19.3833 27.5611 19.8885 27.5611C20.401 27.5538 20.6828 27.5501 20.7341 27.5501C20.7853 27.5501 21.0636 27.5538 21.5687 27.5611C22.0812 27.5611 22.4693 27.5611 22.7328 27.5611C22.9964 27.5538 23.3478 27.5428 23.7871 27.5281C24.2337 27.5062 24.6108 27.4696 24.9183 27.4183C25.2331 27.3597 25.4967 27.2902 25.709 27.2096C26.0751 27.0632 26.3972 26.8509 26.6754 26.5727C26.9536 26.2945 27.166 25.9723 27.3124 25.6063C27.3929 25.3939 27.4588 25.134 27.5101 24.8265C27.5686 24.5117 27.6053 24.1346 27.6199 23.6954C27.6419 23.2488 27.6528 22.8937 27.6528 22.6301C27.6602 22.3665 27.6602 21.9821 27.6528 21.477C27.6528 20.9645 27.6528 20.6826 27.6528 20.6313C27.6528 20.5801 27.6528 20.3019 27.6528 19.7967C27.6602 19.2842 27.6602 18.8962 27.6528 18.6326C27.6528 18.369 27.6419 18.0176 27.6199 17.5783C27.6053 17.1317 27.5686 16.7546 27.5101 16.4471C27.4588 16.1323 27.3929 15.8688 27.3124 15.6564C27.166 15.2904 26.9536 14.9682 26.6754 14.69C26.3972 14.4118 26.0751 14.1995 25.709 14.053C25.4967 13.9725 25.2331 13.9066 24.9183 13.8554C24.6108 13.7968 24.2337 13.7602 23.7871 13.7455C23.3478 13.7236 22.9964 13.7126 22.7328 13.7126C22.4693 13.7053 22.0812 13.7053 21.5687 13.7126ZM29.1135 17.15C29.1501 17.7943 29.1684 18.9547 29.1684 20.6313C29.1684 22.3079 29.1501 23.4684 29.1135 24.1127C29.0403 25.6355 28.5863 26.8143 27.7517 27.6489C26.917 28.4836 25.7383 28.9375 24.2154 29.0107C23.5711 29.0473 22.4107 29.0656 20.7341 29.0656C19.0575 29.0656 17.897 29.0473 17.2528 29.0107C15.7299 28.9375 14.5511 28.4836 13.7165 27.6489C12.8819 26.8143 12.4279 25.6355 12.3547 24.1127C12.3181 23.4684 12.2998 22.3079 12.2998 20.6313C12.2998 18.9547 12.3181 17.7943 12.3547 17.15C12.4279 15.6271 12.8819 14.4484 13.7165 13.6138C14.5511 12.7791 15.7299 12.3252 17.2528 12.252C17.897 12.2154 19.0575 12.1971 20.7341 12.1971C22.4107 12.1971 23.5711 12.2154 24.2154 12.252C25.7383 12.3252 26.917 12.7791 27.7517 13.6138C28.5863 14.4484 29.0403 15.6271 29.1135 17.15Z" fill="white"/>
<defs>
<linearGradient id="paint0_linear" x1="31.98" y1="4.1" x2="7.38" y2="34.85" gradientUnits="userSpaceOnUse">
<stop stop-color="#532BD6"/>
<stop offset="0.317708" stop-color="#D61B58"/>
<stop offset="0.505208" stop-color="#F14136"/>
<stop offset="0.776042" stop-color="#E67767"/>
<stop offset="1" stop-color="#F8D876"/>
</linearGradient>
</defs>
</svg>
