<svg width="41" height="41" viewBox="0 0 41 41" fill="none" xmlns="http://www.w3.org/2000/svg">
<circle cx="20.5" cy="20.5" r="20.5" fill="#F9931D"/>
<path d="M23.674 19.2915C22.7002 20.2653 21.5251 20.7521 20.1487 20.7521C18.7723 20.7521 17.5972 20.2653 16.6234 19.2915C15.6497 18.3178 15.1628 17.1463 15.1628 15.7772C15.1628 14.4008 15.6497 13.2257 16.6234 12.252C17.5972 11.2782 18.7723 10.7913 20.1487 10.7913C21.5251 10.7913 22.7002 11.2782 23.674 12.252C24.6477 13.2257 25.1346 14.4008 25.1346 15.7772C25.1346 17.1463 24.6477 18.3178 23.674 19.2915ZM21.8729 14.0421C21.397 13.5588 20.8223 13.3172 20.1487 13.3172C19.4751 13.3172 18.8967 13.5588 18.4135 14.0421C17.9376 14.5179 17.6997 15.0963 17.6997 15.7772C17.6997 16.4508 17.9376 17.0292 18.4135 17.5124C18.8967 17.9883 19.4751 18.2263 20.1487 18.2263C20.8223 18.2263 21.397 17.9883 21.8729 17.5124C22.3561 17.0292 22.5977 16.4508 22.5977 15.7772C22.5977 15.0963 22.3561 14.5179 21.8729 14.0421ZM25.8924 21.3562C25.9875 21.5538 26.0424 21.7369 26.0571 21.9053C26.0717 22.0663 26.0534 22.2128 26.0022 22.3446C25.9582 22.4763 25.8631 22.6191 25.7166 22.7729C25.5702 22.9193 25.4128 23.0547 25.2444 23.1792C25.0833 23.2963 24.86 23.4464 24.5745 23.6295C23.7325 24.1639 22.5794 24.508 21.1151 24.6618L21.9168 25.4525L24.849 28.3847C25.0687 28.6117 25.1785 28.8826 25.1785 29.1974C25.1785 29.5122 25.0687 29.7795 24.849 29.9991L24.7173 30.1419C24.4903 30.3615 24.2194 30.4713 23.9046 30.4713C23.5898 30.4713 23.3189 30.3615 23.0919 30.1419C22.6014 29.644 21.624 28.6629 20.1597 27.1987L17.2274 30.1419C17.0005 30.3615 16.7296 30.4713 16.4148 30.4713C16.0999 30.4713 15.8327 30.3615 15.6131 30.1419L15.4813 29.9991C15.2543 29.7795 15.1408 29.5122 15.1408 29.1974C15.1408 28.8826 15.2543 28.6117 15.4813 28.3847L18.4135 25.4525L19.2042 24.6618C17.718 24.508 16.5575 24.1639 15.7229 23.6295C15.4373 23.4464 15.2104 23.2963 15.042 23.1792C14.8809 23.0547 14.7272 22.9193 14.5807 22.7729C14.4343 22.6191 14.3355 22.4763 14.2842 22.3446C14.2403 22.2128 14.2257 22.0663 14.2403 21.9053C14.2549 21.7369 14.3098 21.5538 14.405 21.3562C14.4782 21.2097 14.5807 21.0816 14.7125 20.9718C14.8443 20.862 14.9981 20.7814 15.1738 20.7302C15.3495 20.6789 15.5545 20.6863 15.7888 20.7521C16.0231 20.818 16.261 20.9462 16.5026 21.1365C16.5392 21.1658 16.5941 21.2061 16.6673 21.2573C16.7406 21.3086 16.898 21.4001 17.1396 21.5319C17.3812 21.6563 17.6338 21.7662 17.8973 21.8613C18.1609 21.9565 18.4977 22.0444 18.9077 22.1249C19.3177 22.2054 19.7314 22.2457 20.1487 22.2457C20.8149 22.2457 21.4519 22.1542 22.0596 21.9712C22.6673 21.7808 23.1065 21.5941 23.3774 21.4111L23.7948 21.1365C24.0364 20.9462 24.2743 20.818 24.5086 20.7521C24.7429 20.6863 24.9479 20.6789 25.1236 20.7302C25.2993 20.7814 25.4531 20.862 25.5849 20.9718C25.7166 21.0816 25.8191 21.2097 25.8924 21.3562Z" fill="white"/>
</svg>
