<svg width="12" height="12" viewBox="0 0 12 12" fill="none" xmlns="http://www.w3.org/2000/svg">
<path d="M11.3333 8.4C10.4667 8.4 9.73333 8.26667 8.93333 8C8.66667 7.93333 8.4 8.00001 8.26667 8.13334L6.8 9.6C4.93333 8.66666 3.4 7.13335 2.4 5.20001L3.86667 3.73334C4.06667 3.53334 4.13333 3.26667 4.06667 3.06667C3.8 2.26667 3.66667 1.46667 3.66667 0.666667C3.66667 0.333333 3.33333 0 3 0H0.666667C0.333333 0 0 0.333333 0 0.666667C0 6.93333 5.06667 12 11.3333 12C11.7333 12 12 11.6667 12 11.3333V9C12 8.73333 11.7333 8.4 11.3333 8.4Z" fill="#D9B300"/>
</svg>
