<svg width="41" height="41" viewBox="0 0 41 41" fill="none" xmlns="http://www.w3.org/2000/svg">
<circle cx="20.5" cy="20.5" r="20.5" fill="#1DA1F2"/>
<path d="M28.8111 15.2721C28.3206 15.9896 27.7275 16.6009 27.032 17.1061C27.0393 17.2086 27.043 17.3623 27.043 17.5673C27.043 18.5191 26.9039 19.4709 26.6256 20.4227C26.3474 21.3671 25.9228 22.275 25.3517 23.1463C24.788 24.0175 24.1144 24.7899 23.331 25.4635C22.5476 26.1297 21.6031 26.6642 20.4976 27.0669C19.3921 27.4622 18.2097 27.6599 16.9504 27.6599C14.9663 27.6599 13.1506 27.1291 11.5032 26.0675C11.7595 26.0968 12.045 26.1114 12.3598 26.1114C14.0072 26.1114 15.4751 25.6063 16.7637 24.5959C15.9949 24.5813 15.3067 24.347 14.699 23.893C14.0914 23.4318 13.674 22.8461 13.4471 22.1359C13.6887 22.1725 13.912 22.1908 14.117 22.1908C14.4318 22.1908 14.743 22.1505 15.0505 22.07C14.2305 21.9016 13.5496 21.4953 13.0078 20.851C12.4733 20.1994 12.2061 19.4453 12.2061 18.5887V18.5447C12.7039 18.8229 13.2384 18.973 13.8095 18.995C13.3263 18.6729 12.9419 18.2519 12.6564 17.7321C12.3708 17.2122 12.2281 16.6485 12.2281 16.0408C12.2281 15.3965 12.3891 14.7998 12.7113 14.2507C13.5972 15.3416 14.6734 16.2165 15.94 16.8754C17.2139 17.5271 18.5757 17.8895 20.0254 17.9627C19.9668 17.6845 19.9375 17.4136 19.9375 17.15C19.9375 16.1689 20.2816 15.3343 20.9698 14.6461C21.6654 13.9505 22.5037 13.6028 23.4848 13.6028C24.5098 13.6028 25.3737 13.9762 26.0765 14.7229C26.8746 14.5692 27.625 14.2837 28.3279 13.8663C28.057 14.7083 27.5372 15.3599 26.7684 15.8212C27.4493 15.7479 28.1302 15.5649 28.8111 15.2721Z" fill="white"/>
</svg>
