<svg width="41" height="41" viewBox="0 0 41 41" fill="none" xmlns="http://www.w3.org/2000/svg">
<circle cx="20.5" cy="20.5" r="20.5" fill="#4D75A3"/>
<path d="M30.0728 16.5021C30.2412 16.9706 29.6921 18.0469 28.4255 19.7308C28.2498 19.9651 28.0118 20.2763 27.7116 20.6643C27.4188 21.0377 27.2174 21.3013 27.1076 21.455C26.9978 21.6088 26.8843 21.7918 26.7672 22.0041C26.6573 22.2091 26.6134 22.3629 26.6354 22.4654C26.6647 22.5605 26.7123 22.685 26.7781 22.8388C26.8514 22.9925 26.9722 23.1499 27.1406 23.311C27.3089 23.4721 27.5176 23.6661 27.7665 23.893C27.7958 23.9077 27.8141 23.9223 27.8214 23.937C28.8538 24.8961 29.553 25.7051 29.919 26.364C29.941 26.4006 29.963 26.4482 29.9849 26.5068C30.0142 26.558 30.0398 26.6532 30.0618 26.7923C30.0911 26.9314 30.0911 27.0559 30.0618 27.1657C30.0325 27.2755 29.941 27.378 29.7873 27.4732C29.6335 27.5611 29.4175 27.605 29.1393 27.605L26.3279 27.6489C26.1522 27.6855 25.9472 27.6672 25.7129 27.594C25.4786 27.5208 25.2882 27.4403 25.1418 27.3524L24.9222 27.2206C24.7025 27.0669 24.4463 26.8326 24.1534 26.5178C23.8606 26.2029 23.608 25.9211 23.3956 25.6721C23.1906 25.4159 22.9673 25.2036 22.7257 25.0352C22.4914 24.8595 22.2864 24.8009 22.1107 24.8595C22.0888 24.8668 22.0595 24.8814 22.0229 24.9034C21.9863 24.918 21.924 24.9693 21.8362 25.0571C21.7483 25.145 21.6678 25.2548 21.5946 25.3866C21.5287 25.5111 21.4664 25.7014 21.4079 25.9577C21.3566 26.2066 21.3347 26.4885 21.342 26.8033C21.342 26.9131 21.3273 27.0156 21.2981 27.1108C21.2761 27.1987 21.2505 27.2646 21.2212 27.3085L21.1773 27.3634C21.0455 27.5025 20.8514 27.583 20.5952 27.605H19.3323C18.8124 27.6343 18.278 27.5757 17.7289 27.4293C17.1798 27.2755 16.6965 27.0815 16.2792 26.8472C15.8692 26.6056 15.4922 26.364 15.1481 26.1224C14.8113 25.8735 14.555 25.6612 14.3793 25.4854L14.1048 25.2219C14.0315 25.1487 13.929 25.0388 13.7973 24.8924C13.6728 24.746 13.4129 24.4129 13.0175 23.893C12.6222 23.3732 12.2341 22.8204 11.8534 22.2347C11.4727 21.649 11.0224 20.8766 10.5026 19.9175C9.99011 18.9584 9.51422 17.9627 9.07493 16.9304C9.031 16.8132 9.00904 16.7144 9.00904 16.6338C9.00904 16.5533 9.02002 16.4947 9.04198 16.4581L9.08591 16.3922C9.19573 16.2531 9.40439 16.1836 9.71189 16.1836L12.721 16.1616C12.8089 16.1763 12.8931 16.2019 12.9736 16.2385C13.0541 16.2678 13.1127 16.2971 13.1493 16.3263L13.2042 16.3593C13.3214 16.4398 13.4092 16.557 13.4678 16.7107C13.6142 17.0768 13.7826 17.4575 13.973 17.8529C14.1633 18.2409 14.3134 18.5374 14.4232 18.7424L14.5989 19.0609C14.8113 19.5002 15.0163 19.8809 15.2139 20.203C15.4116 20.5252 15.5873 20.7778 15.7411 20.9608C15.9022 21.1365 16.0559 21.2756 16.2023 21.3781C16.3488 21.4806 16.4732 21.5319 16.5757 21.5319C16.6782 21.5319 16.7771 21.5136 16.8723 21.477C16.8869 21.4696 16.9052 21.4513 16.9272 21.4221C16.9491 21.3928 16.9931 21.3122 17.0589 21.1804C17.1248 21.0487 17.1724 20.8766 17.2017 20.6643C17.2383 20.452 17.2749 20.1554 17.3115 19.7747C17.3481 19.394 17.3481 18.9364 17.3115 18.402C17.2969 18.1091 17.2639 17.8419 17.2127 17.6003C17.1614 17.3587 17.1102 17.1903 17.0589 17.0951L16.9931 16.9633C16.81 16.7144 16.4989 16.557 16.0596 16.4911C15.9644 16.4764 15.9827 16.3886 16.1145 16.2275C16.2316 16.0884 16.3707 15.9786 16.5318 15.898C16.9198 15.7077 17.7948 15.6198 19.1565 15.6345C19.7569 15.6418 20.2511 15.6894 20.6391 15.7772C20.7856 15.8138 20.9064 15.8651 21.0015 15.931C21.104 15.9896 21.1809 16.0774 21.2322 16.1946C21.2834 16.3044 21.32 16.4215 21.342 16.546C21.3713 16.6631 21.3859 16.8279 21.3859 17.0402C21.3859 17.2525 21.3823 17.4538 21.3749 17.6442C21.3676 17.8346 21.3566 18.0945 21.342 18.4239C21.3347 18.7461 21.331 19.0463 21.331 19.3245C21.331 19.405 21.3273 19.5588 21.32 19.7857C21.3127 20.0127 21.309 20.1884 21.309 20.3129C21.3164 20.4373 21.331 20.5874 21.353 20.7631C21.3749 20.9315 21.4152 21.0743 21.4738 21.1914C21.5397 21.3013 21.6239 21.3891 21.7264 21.455C21.7849 21.4696 21.8472 21.4843 21.9131 21.4989C21.9789 21.5136 22.0741 21.4733 22.1986 21.3781C22.3231 21.2829 22.4622 21.1585 22.6159 21.0047C22.7697 20.8437 22.96 20.5984 23.187 20.2689C23.4139 19.9321 23.6629 19.5368 23.9338 19.0829C24.3731 18.3214 24.7648 17.4978 25.1089 16.6119C25.1381 16.5387 25.1748 16.4764 25.2187 16.4252C25.2626 16.3666 25.3029 16.3263 25.3395 16.3044L25.3834 16.2714C25.3981 16.2641 25.4164 16.2568 25.4383 16.2495C25.4603 16.2348 25.5079 16.2238 25.5811 16.2165C25.6543 16.2019 25.7275 16.1982 25.8007 16.2055L28.9636 16.1836C29.2491 16.147 29.4834 16.1579 29.6664 16.2165C29.8495 16.2678 29.963 16.3263 30.0069 16.3922L30.0728 16.5021Z" fill="white"/>
</svg>
